HIERARCHY
ROOT Hips
{
	OFFSET -285.066589 92.472481 297.089996
	CHANNELS 6 Xposition Yposition Zposition Zrotation Yrotation Xrotation 
	JOINT LeftUpLeg
	{
		OFFSET 0.103457 1.857824 10.548504
		CHANNELS 3 Zrotation Yrotation Xrotation
		JOINT LeftLeg
		{
			OFFSET 43.500000 -0.000038 -0.000017
			CHANNELS 3 Zrotation Yrotation Xrotation
			JOINT LeftFoot
			{
				OFFSET 42.372200 0.000011 0.000019
				CHANNELS 3 Zrotation Yrotation Xrotation
				JOINT LeftToe
				{
					OFFSET 17.300011 0.000002 -0.000008
					CHANNELS 3 Zrotation Yrotation Xrotation
					End Site
					{
						OFFSET 0.000000 0.000000 0.000000
					}
				}
			}
		}
	}
	JOINT RightUpLeg
	{
		OFFSET 0.103457 1.857822 -10.548492
		CHANNELS 3 Zrotation Yrotation Xrotation
		JOINT RightLeg
		{
			OFFSET 43.500038 -0.000027 0.000036
			CHANNELS 3 Zrotation Yrotation Xrotation
			JOINT RightFoot
			{
				OFFSET 42.372261 0.000015 0.000010
				CHANNELS 3 Zrotation Yrotation Xrotation
				JOINT RightToe
				{
					OFFSET 17.299988 -0.000006 0.000008
					CHANNELS 3 Zrotation Yrotation Xrotation
					End Site
					{
						OFFSET 0.000000 0.000000 0.000000
					}
				}
			}
		}
	}
	JOINT Spine
	{
		OFFSET 6.901965 -2.603737 0.000006
		CHANNELS 3 Zrotation Yrotation Xrotation
		JOINT Spine1
		{
			OFFSET 12.588104 -0.000005 0.000007
			CHANNELS 3 Zrotation Yrotation Xrotation
			JOINT Spine2
			{
				OFFSET 12.343202 0.000026 -0.000008
				CHANNELS 3 Zrotation Yrotation Xrotation
				JOINT Neck
				{
					OFFSET 25.832890 -0.000029 -0.000007
					CHANNELS 3 Zrotation Yrotation Xrotation
					JOINT Head
					{
						OFFSET 11.766619 0.000021 0.000012
						CHANNELS 3 Zrotation Yrotation Xrotation
						End Site
						{
							OFFSET 0.000000 0.000000 0.000000
						}
					}
				}
				JOINT LeftShoulder
				{
					OFFSET 19.745909 -1.480377 6.000106
					CHANNELS 3 Zrotation Yrotation Xrotation
					JOINT LeftArm
					{
						OFFSET 11.284110 -0.000009 -0.000020
						CHANNELS 3 Zrotation Yrotation Xrotation
						JOINT LeftForeArm
						{
							OFFSET 33.000053 0.000014 0.000021
							CHANNELS 3 Zrotation Yrotation Xrotation
							JOINT LeftHand
							{
								OFFSET 25.200008 0.000006 -0.000004
								CHANNELS 3 Zrotation Yrotation Xrotation
								End Site
								{
									OFFSET 0.000000 0.000000 0.000000
								}
							}
						}
					}
				}
				JOINT RightShoulder
				{
					OFFSET 19.746101 -1.480381 -6.000081
					CHANNELS 3 Zrotation Yrotation Xrotation
					JOINT RightArm
					{
						OFFSET 11.284131 -0.000022 0.000003
						CHANNELS 3 Zrotation Yrotation Xrotation
						JOINT RightForeArm
						{
							OFFSET 33.000095 0.000014 0.000005
							CHANNELS 3 Zrotation Yrotation Xrotation
							JOINT RightHand
							{
								OFFSET 25.199774 0.000153 0.000423
								CHANNELS 3 Zrotation Yrotation Xrotation
								End Site
								{
									OFFSET 0.000000 0.000000 0.000000
								}
							}
						}
					}
				}
			}
		}
	}
}
MOTION
Frames: 9
Frame Time: 0.033333
-173.266998 85.570824 -138.349792 91.786555 -1.779788 171.786989 171.545911 -3.268297 168.233146 -43.975934 -2.910289 2.137989 100.976096 -1.249320 1.671849 21.454557 0.003092 -0.000000 145.345264 5.466505 -167.046947 -39.658933 -2.272660 3.186385 80.054175 -0.484840 7.060901 21.454555 -0.003109 -0.000018 13.019667 -0.810002 -0.403410 16.034243 -1.556201 -0.915371 15.716052 -1.561566 -0.905942 7.627236 4.375689 2.824579 -25.655719 -6.094369 6.162787 -169.842052 -78.555180 -11.849124 -29.907930 53.423766 30.189101 -38.364595 -17.954180 1.607882 12.156842 11.883465 -9.292470 162.342054 72.126121 -16.769994 -6.327463 -57.061419 -29.782497 -46.051553 20.716109 -2.034904 2.853130 1.455081 36.767820 
-175.425201 86.407387 -138.418503 91.837269 -1.686224 170.926030 171.065817 -3.210100 169.287891 -41.900154 -3.643404 1.217396 98.818644 -0.607166 1.559084 21.454553 0.003092 0.000000 147.740134 5.904404 -168.616033 -46.703730 -2.791974 2.565376 81.919008 0.140244 8.261278 21.454560 -0.003108 -0.000019 12.722767 -0.862681 -0.380177 15.440698 -1.666828 -0.872294 15.122507 -1.671930 -0.862200 7.826446 4.915956 3.097967 -24.561157 -6.737606 6.702753 -169.274900 -78.598252 -12.426992 -28.610119 54.159370 31.449394 -36.923948 -17.563673 1.546564 10.452996 12.552642 -12.542457 162.128897 72.099812 -16.989990 -7.524167 -55.936978 -31.211301 -47.358612 20.431358 -2.057033 2.382492 0.300856 24.718712 
-177.477295 87.293579 -138.187805 91.814340 -1.248724 170.892945 170.518555 -3.808196 170.080234 -39.983514 -3.960758 0.939729 96.327517 -0.400651 1.420498 21.454548 0.003092 0.000000 151.782868 6.063794 -171.291855 -51.299215 -2.321662 2.811359 84.146052 -0.178915 8.286653 21.454557 -0.003107 -0.000018 12.380458 -0.783482 -0.434930 14.755690 -1.505018 -0.966410 14.437534 -1.510693 -0.957291 8.024418 5.396449 3.241507 -22.711357 -7.178176 6.936057 -169.800046 -78.584229 -11.892094 -27.039336 54.792515 33.086980 -35.572947 -17.223290 1.492147 9.420990 12.603574 -14.524040 162.239997 72.296446 -16.866942 -8.872340 -55.226741 -32.322692 -48.041543 20.577410 -2.088667 4.294425 0.472875 13.638622 
-179.468002 88.081207 -137.866394 91.489571 -0.918311 171.248046 169.661175 -4.414306 170.651935 -38.127479 -4.041984 0.969443 93.911570 -0.411543 1.262557 21.454551 0.003092 -0.000000 156.607878 6.184602 -174.413880 -53.189535 -1.285422 3.267732 85.153348 -0.667811 7.871405 21.454563 -0.003104 -0.000017 11.933365 -0.671555 -0.468058 13.860436 -1.282142 -1.013320 13.542305 -1.288105 -1.005547 8.498136 5.628721 3.243890 -20.725816 -7.275871 6.819881 -172.396010 -78.558657 -9.248045 -25.318174 55.097637 34.948876 -34.380406 -16.577827 1.422996 8.641088 11.560342 -15.795026 162.708985 72.667755 -16.368893 -10.252921 -54.958578 -33.214021 -47.335475 20.921033 -2.088992 7.183698 0.487167 7.433804 
-181.409698 88.633293 -137.561798 90.876425 -1.223577 171.579953 168.384298 -4.471893 170.510386 -36.528477 -3.830979 1.289588 91.683624 -0.631476 1.113590 21.454553 0.003092 0.000000 161.521188 6.998794 -176.972865 -52.987286 -0.857735 2.741390 85.560093 -0.275372 8.165331 21.454560 -0.003109 -0.000017 11.374977 -0.718157 -0.433606 12.743717 -1.384140 -0.943803 12.425588 -1.389679 -0.935414 9.685642 6.290528 3.169943 -19.779919 -7.423300 6.721083 -173.815897 -79.070914 -7.805924 -24.289235 55.606558 36.543370 -33.445261 -16.033268 1.367107 8.519624 10.337643 -16.392987 163.715085 72.659423 -15.339114 -11.459786 -54.724951 -33.661501 -45.763019 20.580268 -2.016934 8.493796 1.845021 1.623981 
-183.222107 88.973251 -137.124695 90.456423 -1.636942 171.957034 167.184685 -4.497301 171.027322 -35.335789 -4.013833 1.348791 89.778158 -0.685255 0.900256 21.454551 0.003092 -0.000000 166.813478 8.128402 -178.793671 -50.124043 -0.914795 0.810889 85.909368 1.252821 9.182018 21.454557 -0.003108 -0.000017 10.863013 -0.763395 -0.339761 11.719101 -1.488434 -0.755206 11.400920 -1.492830 -0.746195 10.755739 6.110932 2.884138 -18.747409 -7.025114 6.118498 -173.043949 -79.233855 -8.593015 -24.013214 55.795727 37.551759 -33.039131 -15.676700 1.335328 8.715863 9.453842 -15.612090 164.264875 72.374440 -14.788109 -11.592643 -54.300943 -34.438343 -44.294330 20.162568 -1.944646 8.879056 3.538845 -3.994911 
-185.035599 89.087784 -136.609695 90.164248 -1.893271 172.041988 165.774183 -4.796601 171.570718 -35.002742 -4.238519 1.304368 88.341346 -0.688478 0.623225 21.454548 0.003092 0.000000 172.521330 8.905898 179.068395 -44.490534 -0.439087 -0.690413 87.507899 1.887318 7.718466 21.454563 -0.003105 -0.000018 10.438383 -0.761334 -0.143122 10.867216 -1.505867 -0.357179 10.549020 -1.507862 -0.348069 11.148267 5.094843 2.498778 -17.191999 -6.097212 5.174544 -171.281036 -78.786253 -10.384989 -24.153021 55.412188 38.025063 -33.152304 -15.529518 1.328290 8.850785 8.379070 -13.546174 163.133058 72.668124 -15.935053 -11.642630 -54.386621 -35.381432 -42.907563 20.001572 -1.893223 8.027974 5.425390 -7.321883 
-186.718506 89.230614 -136.063995 89.899394 -1.666706 171.902952 164.494601 -5.585496 172.148061 -34.825816 -4.428375 1.206201 87.045153 -0.672897 0.299582 21.454545 0.003092 0.000000 178.049685 9.345794 178.621359 -36.801462 -0.659205 -2.523327 88.700989 2.954183 7.041474 21.454562 -0.003108 -0.000018 10.081644 -0.674015 0.169700 10.149498 -1.360341 0.279625 9.831320 -1.358492 0.287844 11.792737 4.304140 2.213475 -16.507237 -5.256507 4.457108 -171.291022 -78.346648 -10.372058 -23.823799 55.008342 38.259315 -34.004172 -15.932133 1.372929 8.668967 6.142326 -9.755307 161.538072 72.787270 -17.563968 -11.583898 -54.312845 -35.926177 -41.914976 19.688027 -1.844198 7.119097 6.923095 -7.645569 
-188.479401 89.223030 -135.400894 89.643118 -1.451776 171.812985 162.905339 -6.375704 172.146285 -35.176635 -4.073760 1.363362 85.917762 -0.876335 -0.159266 21.454550 0.003092 0.000000 -177.414683 9.662202 178.272582 -28.148214 -0.358153 -4.147371 90.446663 3.857837 6.510729 21.454557 -0.003108 -0.000018 9.789292 -0.592816 0.494802 9.561262 -1.224507 0.938966 9.243121 -1.218679 0.946352 12.240659 4.130039 1.886920 -16.019855 -5.058426 3.992199 -172.054924 -78.249488 -9.593018 -23.217775 54.898216 37.591042 -35.739050 -16.585827 1.454852 8.873322 2.351435 -5.116731 161.310053 72.598900 -17.804937 -11.990897 -53.893259 -35.975645 -41.096138 19.488092 -1.808168 7.140298 7.531556 -6.175702 
